<?xml version="1.0" encoding="UTF-8"?>
<svg id="Layer_1" data-name="Layer 1" xmlns="http://www.w3.org/2000/svg" viewBox="0 0 1142 282.66">
  <defs>
    <style>
      .cls-1 {
        letter-spacing: -.04em;
      }

      .cls-2 {
        letter-spacing: -.02em;
      }

      .cls-3 {
        fill: #282a29;
        font-family: Switzer-Black, Switzer;
        font-size: 255.59px;
        font-weight: 800;
      }

      .cls-4 {
        letter-spacing: -.19em;
      }

      .cls-5 {
        fill: #292b2a;
      }

      .cls-5, .cls-6 {
        stroke-width: 0px;
      }

      .cls-6 {
        fill: #999;
      }
    </style>
  </defs>
  <text class="cls-3" transform="translate(323.89 214.7)"><tspan class="cls-1" x="0" y="0">C</tspan><tspan x="170.48" y="0">L</tspan><tspan class="cls-4" x="309.77" y="0">A</tspan><tspan class="cls-2" x="444.98" y="0">V</tspan><tspan x="623.64" y="0">E</tspan></text>
  <g>
    <path class="cls-5" d="m77.13,129.57C52.05,108.52,26.96,87.47,1.88,66.42c-2.36-1.98-2.47-3.51-.48-5.87,3.69-4.39,7.37-8.78,11.06-13.17,1.71-2.04,3.41-2.18,5.46-.46,32.98,27.67,65.96,55.34,98.92,83.04,1,.84,1.24.63,1.66-.46,11.95-31.2,23.92-62.38,35.89-93.57.38-.99.7-2.01,1.67-2.63,1.13-.72,2.25-.62,3.45-.15,5.43,2.11,10.87,4.18,16.31,6.28,2.67,1.03,3.32,2.51,2.28,5.21-10.09,26.29-20.18,52.58-30.27,78.87-.22.58-.43,1.16-.74,1.96.65-.25,1.12-.42,1.58-.62,47.28-21.05,94.55-42.1,141.83-63.15,2.98-1.33,4.38-.8,5.7,2.17,2.23,5.01,4.47,10.03,6.7,15.04,1.43,3.22.95,4.48-2.22,5.89-44.73,19.91-89.45,39.83-134.18,59.74-.52.23-1.04.47-1.91.86,2.94.53,5.52.99,8.11,1.45,29.53,5.21,59.06,10.41,88.59,15.62,2.33.41,3.36,1.91,2.95,4.24-1.01,5.78-2.03,11.57-3.04,17.35-.48,2.71-1.84,3.7-4.59,3.22-24.22-4.27-48.44-8.54-72.66-12.82-5.73-1.01-11.46-2.02-17.65-3.11.68.59,1.04.92,1.41,1.23,15.83,13.28,31.65,26.56,47.48,39.83,2.51,2.11,2.64,3.56.53,6.08-3.65,4.36-7.3,8.71-10.95,13.06-1.73,2.06-3.4,2.21-5.46.49-23.1-19.37-46.2-38.74-69.27-58.15-1.01-.85-1.3-.75-1.75.45-7.35,19.25-14.75,38.47-22.13,57.71-1.11,2.88-2.49,3.49-5.38,2.38-5.3-2.03-10.61-4.07-15.91-6.11-2.68-1.03-3.35-2.52-2.32-5.2,6.16-16.04,12.32-32.09,18.47-48.13.17-.43.29-.88.51-1.54-4.79,2.13-9.35,4.16-13.91,6.19-14.6,6.5-29.2,13-43.8,19.5-2.81,1.25-4.26.69-5.51-2.1-2.31-5.19-4.62-10.38-6.93-15.57-1.17-2.63-.59-4.16,2.01-5.32,14.56-6.48,29.11-12.96,43.67-19.45.46-.21,1.02-.29,1.4-.84-6.64-1.17-13.21-2.34-19.79-3.5-18.25-3.21-36.5-6.42-54.75-9.64-2.83-.5-3.76-1.84-3.26-4.68,1.01-5.74,2.02-11.47,3.06-17.2.45-2.51,1.9-3.47,4.45-3.02,22.8,4.02,45.6,8.03,68.4,12.05.28.04.69.33.59-.32Z"/>
    <path class="cls-6" d="m77.13,129.57c.24.06.54.31.4.44-.29.28-.68.15-.99-.12.2-.11.39-.21.59-.32Z"/>
  </g>
</svg>