<?xml version="1.0" encoding="UTF-8"?>
<svg id="Layer_1" data-name="Layer 1" xmlns="http://www.w3.org/2000/svg" viewBox="0 0 893.61 695.2">
  <defs>
    <style>
      .cls-1 {
        letter-spacing: -.04em;
      }

      .cls-2 {
        letter-spacing: -.02em;
      }

      .cls-3 {
        fill: #282a29;
        font-family: Switzer-Black, Switzer;
        font-size: 200px;
        font-weight: 800;
      }

      .cls-4 {
        letter-spacing: -.19em;
      }

      .cls-5 {
        fill: #292b2a;
      }

      .cls-5, .cls-6 {
        stroke-width: 0px;
      }

      .cls-6 {
        fill: #999;
      }
    </style>
  </defs>
  <text class="cls-3" transform="translate(253.45 168)"><tspan class="cls-1" x="0" y="0">C</tspan><tspan x="133.4" y="0">L</tspan><tspan class="cls-4" x="242.4" y="0">A</tspan><tspan class="cls-2" x="348.2" y="0">V</tspan><tspan x="487.99" y="0">E</tspan></text>
  <g>
    <path class="cls-5" d="m60.36,101.39C40.73,84.92,21.1,68.45,1.47,51.98c-1.85-1.55-1.93-2.75-.38-4.6,2.89-3.43,5.77-6.87,8.65-10.3,1.34-1.6,2.67-1.71,4.28-.36,25.81,21.65,51.62,43.3,77.41,64.98.78.66.97.49,1.3-.36,9.35-24.41,18.72-48.82,28.08-73.22.3-.77.55-1.57,1.31-2.06.88-.56,1.76-.48,2.7-.12,4.25,1.65,8.51,3.27,12.76,4.91,2.09.8,2.6,1.96,1.79,4.08-7.89,20.57-15.79,41.14-23.69,61.72-.17.45-.34.91-.58,1.54.51-.2.88-.33,1.23-.48,36.99-16.47,73.99-32.94,110.98-49.41,2.34-1.04,3.43-.62,4.46,1.7,1.75,3.92,3.5,7.85,5.24,11.77,1.12,2.52.74,3.51-1.74,4.61-35,15.58-70,31.16-104.99,46.75-.41.18-.81.37-1.5.68,2.3.41,4.32.78,6.34,1.13,23.11,4.07,46.21,8.15,69.32,12.22,1.82.32,2.63,1.5,2.31,3.32-.79,4.53-1.59,9.05-2.38,13.58-.37,2.12-1.44,2.9-3.59,2.52-18.95-3.34-37.9-6.68-56.86-10.03-4.48-.79-8.97-1.58-13.81-2.43.53.46.81.72,1.1.96,12.38,10.39,24.77,20.78,37.15,31.17,1.96,1.65,2.07,2.79.41,4.76-2.85,3.41-5.71,6.82-8.57,10.22-1.35,1.61-2.66,1.73-4.27.38-18.07-15.16-36.15-30.32-54.2-45.5-.79-.67-1.01-.58-1.37.35-5.75,15.06-11.54,30.11-17.32,45.16-.86,2.25-1.95,2.73-4.21,1.86-4.15-1.59-8.3-3.18-12.45-4.78-2.1-.81-2.62-1.98-1.81-4.07,4.82-12.55,9.64-25.11,14.46-37.66.13-.34.23-.69.4-1.21-3.75,1.67-7.32,3.25-10.88,4.84-11.43,5.09-22.85,10.17-34.28,15.26-2.2.98-3.33.54-4.31-1.65-1.81-4.06-3.62-8.12-5.42-12.18-.92-2.06-.47-3.26,1.58-4.17,11.39-5.07,22.78-10.14,34.17-15.22.36-.16.8-.22,1.1-.66-5.2-.92-10.34-1.83-15.49-2.74-14.28-2.52-28.56-5.03-42.84-7.55-2.22-.39-2.95-1.44-2.55-3.66.79-4.49,1.58-8.97,2.39-13.46.35-1.97,1.49-2.71,3.48-2.36,17.84,3.14,35.68,6.28,53.52,9.43.22.03.54.26.46-.25Z"/>
    <path class="cls-6" d="m60.36,101.39c.19.05.42.24.31.34-.23.22-.53.12-.77-.09.15-.08.31-.17.46-.25Z"/>
  </g>
</svg>